<svg xmlns="http://www.w3.org/2000/svg" viewBox="0 0 64 64" width="64" height="64">
  <defs>
    <linearGradient id="g" x1="0" y1="0" x2="1" y2="1">
      <stop offset="0" stop-color="#3b82f6"/>
      <stop offset="1" stop-color="#22d3ee"/>
    </linearGradient>
  </defs>
  <rect x="4" y="4" width="56" height="56" rx="14" fill="url(#g)"/>
  <rect x="6" y="6" width="52" height="52" rx="12" fill="rgba(0,0,0,0.18)"/>
  <path d="M16 42h10c5 0 8-3 8-7 0-3-2-5-5-6 3-1 5-3 5-6 0-4-3-7-8-7H16v26zm8-16h2c2 0 3 1 3 2 0 2-1 2-3 2h-2v-4zm0 10h3c2 0 4 1 4 3s-2 3-4 3h-3v-6z" fill="#fff"/>
  <path d="M38 42h4l6-8 6 8h4l-8-11 8-11h-4l-6 8-6-8h-4l8 11-8 11z" fill="#fff"/>
  <circle cx="14" cy="18" r="2" fill="#e2e8f0"/>
  <circle cx="50" cy="46" r="2" fill="#e2e8f0"/>
  <path d="M14 18h8" stroke="#e2e8f0" stroke-width="2" stroke-linecap="round"/>
  <path d="M50 46h-8" stroke="#e2e8f0" stroke-width="2" stroke-linecap="round"/>
</svg>
